# xmcd
#
# Track frame offsets: 
#        150
#        17659
#        37906
#        53189
#        71214
#        90954
#        106112
#        121876
#        136680
#        154957
#        174741
#
# Disc length: 2603 seconds
#
# Revision: 2
# Processed by: cddbd v1.5.2PL0 Copyright (c) Steve Scherf et al.
# Submitted via: ExactAudioCopy v0.99pb5
#
DISCID=850a290b
DTITLE=Дмитрий Полторацкий - Волейбол
DYEAR=2004
DGENRE=Chanson
TTITLE0=Фонарики любви
TTITLE1=Волейбол
TTITLE2=Снегоход
TTITLE3=Львиные мосты
TTITLE4=Мой Петербург
TTITLE5=Кафе
TTITLE6=О птичках
TTITLE7=Гимн ливерной колбасе
TTITLE8=Я лечу
TTITLE9=Мы
TTITLE10=Дым над тайгой
EXTD=
EXTT0=
EXTT1=
EXTT2=
EXTT3=
EXTT4=
EXTT5=
EXTT6=
EXTT7=
EXTT8=
EXTT9=
EXTT10=
PLAYORDER=
